<svg width="207" height="45" viewBox="0 0 207 45" fill="none" xmlns="http://www.w3.org/2000/svg">
<g clip-path="url(#clip0_150_686)">
<path d="M3.74231 34.5068C1.68228 31.1575 0.494141 27.2145 0.494141 22.994C0.494141 10.8404 10.3465 0.988037 22.5001 0.988037C34.6537 0.988037 44.5061 10.8404 44.5061 22.994C44.5061 27.2145 43.318 31.1575 41.2579 34.5068C35.491 33.3976 29.1528 32.7844 22.5001 32.7844C15.8475 32.7844 9.50923 33.3976 3.74231 34.5068Z" fill="#024C67"/>
<path d="M16.5718 6.28742C16.5718 6.7835 16.1697 7.18563 15.6736 7.18563C15.1775 7.18563 14.7754 6.7835 14.7754 6.28742C14.7754 5.79135 15.1775 5.38922 15.6736 5.38922C16.1697 5.38922 16.5718 5.79135 16.5718 6.28742Z" fill="#3691BB"/>
<path d="M30.9429 5.38923C30.9429 5.88531 30.5408 6.28743 30.0447 6.28743C29.5486 6.28743 29.1465 5.88531 29.1465 5.38923C29.1465 4.89315 29.5486 4.49103 30.0447 4.49103C30.5408 4.49103 30.9429 4.89315 30.9429 5.38923Z" fill="#FFF5F5"/>
<path d="M41.7206 17.9641C41.7206 18.4601 41.3185 18.8623 40.8224 18.8623C40.3264 18.8623 39.9242 18.4601 39.9242 17.9641C39.9242 17.468 40.3264 17.0659 40.8224 17.0659C41.3185 17.0659 41.7206 17.468 41.7206 17.9641ZM4.8943 13.4731C4.39822 13.4731 3.99609 13.8752 3.99609 14.3713C3.99609 14.8673 4.39822 15.2695 4.8943 15.2695C5.39038 15.2695 5.7925 14.8673 5.7925 14.3713C5.7925 13.8752 5.39038 13.4731 4.8943 13.4731Z" fill="#FDF061"/>
<path d="M36.8218 35.04C37.6223 28.9538 39.3208 20.3245 41.2868 20.3245C42.3889 20.3245 43.4068 23.0361 44.2297 26.4914C43.8115 29.1103 42.9311 31.5751 41.675 33.7994C41.0598 34.8887 39.8409 35.4936 38.6048 35.3008C38.0154 35.209 37.4211 35.122 36.8218 35.04ZM6.69166 35.2551C6.67432 31.9123 4.54064 15.8547 1.88231 15.285C0.984829 17.6841 0.494141 20.2818 0.494141 22.994C0.494141 26.9147 1.51953 30.5959 3.31666 33.784C3.94172 34.893 5.1983 35.4867 6.45624 35.2914C6.53456 35.2792 6.61306 35.2672 6.69166 35.2551Z" fill="#025F80"/>
<path d="M39.7449 33.5273V33.5525C39.7414 34.868 38.3924 35.9281 36.7472 35.9281H29.9882C28.5816 35.9281 27.3917 35.1533 27.0738 34.1065C26.9163 34.1231 26.7558 34.1317 26.5929 34.1317H18.4059C18.243 34.1317 18.0825 34.1231 17.925 34.1065C17.6072 35.1533 16.4172 35.9281 15.0106 35.9281H8.25166C6.60642 35.9281 5.25741 34.868 5.25391 33.5525C5.25391 33.5441 5.25391 33.5357 5.25391 33.5273C5.25391 29.2662 8.10912 7.74961 11.6312 7.74961C13.3807 7.74961 14.9656 13.0585 16.1179 18.9245C17.509 10.0654 19.8482 0 22.4994 0C25.1506 0 27.4898 10.0654 28.881 18.9245C30.0332 13.0585 31.6182 7.74961 33.3677 7.74961C36.8897 7.74961 39.7449 29.2662 39.7449 33.5273Z" fill="#22B27F"/>
<path d="M23.6231 0.592096C20.0629 7.40892 17.4524 27.879 17.4524 32.5721V32.6054C17.4538 33.1499 17.6291 33.6614 17.9357 34.1076C16.1623 33.9244 14.7787 32.7203 14.7749 31.2542C14.7749 31.244 14.7749 31.2339 14.7749 31.2237C14.7749 26.0623 18.2333 0 22.4994 0C22.8811 0 23.2562 0.208563 23.6231 0.592096ZM22.4994 9.88024C22.0033 9.88024 21.6012 10.2824 21.6012 10.7784V34.1317H23.3976V10.7784C23.3976 10.2824 22.9955 9.88024 22.4994 9.88024ZM29.2009 34.6406C29.2009 30.7661 31.3562 13.8663 34.2953 8.2385C33.9925 7.92189 33.6828 7.7497 33.3677 7.7497C29.8456 7.7497 26.9904 29.2663 26.9904 33.5274V33.5526C26.9937 34.763 28.1359 35.7571 29.6 35.9084C29.3468 35.54 29.2021 35.1178 29.2009 34.6682C29.2009 34.6589 29.2009 34.6497 29.2009 34.6406ZM33.3677 15.9066C32.9581 15.9066 32.6261 16.2385 32.6261 16.6481V35.9281H34.1092V16.6481C34.1092 16.2385 33.7773 15.9066 33.3677 15.9066ZM11.6312 7.74961C8.10912 7.74961 5.25391 29.2662 5.25391 33.5273V33.5525C5.25714 34.7629 6.39939 35.757 7.86346 35.9083C7.61025 35.5399 7.46555 35.1177 7.46439 34.6681C7.46439 34.659 7.46439 34.6497 7.46439 34.6406C7.46439 30.7661 9.61963 13.8663 12.5588 8.2385C12.2559 7.9218 11.9462 7.74961 11.6312 7.74961ZM11.6312 15.9066C11.2216 15.9066 10.8896 16.2385 10.8896 16.6481V31.0334L12.3727 35.9281V16.6481C12.3727 16.2385 12.0407 15.9066 11.6312 15.9066Z" fill="#059B7E"/>
<path d="M41.6925 33.769C41.3891 34.3082 41.0637 34.8333 40.7174 35.3431L33.1529 27.5582C32.8072 27.2026 32.8153 26.6339 33.1711 26.2882C33.5269 25.9425 34.0909 25.9515 34.4365 26.3072L41.6925 33.769ZM11.8356 26.2883C11.4798 25.9426 10.9111 25.9507 10.5655 26.3065L3.31055 33.7728C3.61396 34.3119 3.93956 34.837 4.28591 35.3467L11.8539 27.5583C12.1994 27.2026 12.1914 26.6339 11.8356 26.2883Z" fill="#CFF09A"/>
<path d="M23.1352 15.0064L34.735 26.6062C34.9474 26.8186 35.0395 27.1231 34.9807 27.4175L33.4229 35.2061C33.3389 35.6259 32.9703 35.9281 32.5421 35.9281H12.4579C12.0298 35.9281 11.6612 35.6259 11.5772 35.2061L10.0194 27.4175C9.96049 27.123 10.0527 26.8186 10.2651 26.6062L21.8649 15.0064C22.2157 14.6556 22.7844 14.6556 23.1352 15.0064Z" fill="#FCB30B"/>
<path d="M27.8776 33.9457H17.1215C16.7901 33.9457 16.5728 33.599 16.7174 33.3007L22.0954 22.2047C22.2591 21.867 22.7401 21.867 22.9037 22.2047L28.2817 33.3007C28.4262 33.599 28.209 33.9457 27.8776 33.9457Z" fill="#FC5426"/>
<path d="M19.7158 33.9457H17.1216C16.7901 33.9457 16.5729 33.599 16.7174 33.3007L22.0954 22.2047C22.259 21.867 22.74 21.867 22.9037 22.2047L23.7966 24.047L19.3115 33.3006C19.1671 33.599 19.3843 33.9457 19.7158 33.9457Z" fill="#E55920"/>
<path d="M14.149 35.9281H12.4579C12.0298 35.9281 11.6612 35.6259 11.5772 35.2061L10.0194 27.4175C9.96049 27.123 10.0527 26.8186 10.2651 26.6062L21.8649 15.0064C22.2157 14.6556 22.7844 14.6556 23.1352 15.0064L24.2522 16.1234L18.4876 21.888C14.8086 25.5668 13.1882 30.8228 14.149 35.9281Z" fill="#FD9D01"/>
<path d="M3.4707 34.0533C9.32196 32.9469 15.7518 32.3353 22.5 32.3353C29.2482 32.3353 35.678 32.9469 41.5292 34.0533C39.9992 36.6803 37.9407 38.9616 35.4996 40.7518C31.3594 40.2424 27.0005 39.9703 22.5 39.9703C17.9994 39.9703 13.6404 40.2424 9.50034 40.7518C7.05912 38.9616 5.0007 36.6803 3.4707 34.0533Z" fill="#509C49"/>
<path d="M19.5643 40.3725C20.8793 40.1989 22.208 40.0422 23.5491 39.9031C27.552 40.1007 31.4452 40.4619 35.1947 40.9716C37.7698 39.1499 39.9362 36.7891 41.5296 34.0533C37.268 33.2475 32.6994 32.7041 27.9246 32.4684C26.6357 32.6021 25.3621 32.7572 24.1054 32.9327C22.8257 33.1115 21.789 33.6409 21.0084 34.3789C20.4192 34.936 20.8175 35.9281 21.6284 35.9281H21.9306C22.409 35.9281 22.8267 36.2892 22.8576 36.7665C22.8915 37.2896 22.4772 37.7246 21.9614 37.7246H20.1663C19.6685 37.7246 19.2598 38.1294 19.2677 38.6271C19.2771 39.219 19.3752 39.8094 19.5643 40.3725ZM34.5363 34.1317H36.3327C36.8287 34.1317 37.2309 34.5339 37.2309 35.0299C37.2309 35.526 36.8287 35.9281 36.3327 35.9281H34.5363C34.0402 35.9281 33.6381 35.526 33.6381 35.0299C33.6381 34.5339 34.0402 34.1317 34.5363 34.1317ZM25.5542 34.1317H27.3506C27.8467 34.1317 28.2488 34.5339 28.2488 35.0299C28.2488 35.526 27.8467 35.9281 27.3506 35.9281H25.5542C25.0581 35.9281 24.656 35.526 24.656 35.0299C24.656 34.5339 25.0581 34.1317 25.5542 34.1317Z" fill="#7ECD00"/>
<path d="M8.23828 39.7533C9.079 39.7212 9.86924 39.4918 10.564 39.1104C11.9652 38.341 13.6748 38.341 15.076 39.1104C15.827 39.5227 16.6895 39.7573 17.6067 39.7573C18.524 39.7573 19.3864 39.5227 20.1374 39.1104C21.5386 38.341 23.2483 38.341 24.6495 39.1104C25.4004 39.5227 26.2629 39.7573 27.1801 39.7573C28.0974 39.7573 28.9598 39.5227 29.7108 39.1104C31.112 38.341 32.8217 38.341 34.2229 39.1104C34.9739 39.5227 35.8363 39.7573 36.7536 39.7573H36.7579C32.9173 43.0268 27.9392 45 22.5003 45C17.0592 45 12.0794 43.0252 8.23828 39.7533Z" fill="#0680AE"/>
<path d="M36.7565 39.7573C33.8794 42.2066 30.364 43.9283 26.4947 44.6381C25.3364 44.4539 24.2058 44.1786 23.111 43.819C20.8725 43.084 19.6421 41.3455 19.3398 39.4649C19.6165 39.3684 19.8826 39.2495 20.1361 39.1104C21.5373 38.341 23.2469 38.341 24.6481 39.1104C25.3991 39.5227 26.2616 39.7573 27.1788 39.7573C28.0961 39.7573 28.9585 39.5227 29.7095 39.1104C31.1107 38.341 32.8204 38.341 34.2216 39.1104C34.9725 39.5227 35.835 39.7573 36.7522 39.7573H36.7565Z" fill="#08A8F0"/>
<path d="M17.4701 35.0299C17.4701 35.526 17.068 35.9282 16.5719 35.9282H14.7755C14.2794 35.9282 13.8773 35.526 13.8773 35.0299C13.8773 34.5339 14.2794 34.1317 14.7755 34.1317H16.5719C17.068 34.1317 17.4701 34.5339 17.4701 35.0299ZM10.2845 35.9282H8.48805C7.99197 35.9282 7.58984 36.3303 7.58984 36.8264C7.58984 37.3224 7.99197 37.7246 8.48805 37.7246H10.2845C10.7805 37.7246 11.1827 37.3224 11.1827 36.8264C11.1827 36.3303 10.7805 35.9282 10.2845 35.9282Z" fill="#387232"/>
<path d="M35.4608 33.7742C35.1484 34.7645 34.5186 35.4698 33.9824 35.4751C33.9351 35.4412 33.8917 35.4001 33.8521 35.3522C33.6582 35.6192 33.4326 35.8051 33.1886 35.8848C32.9445 35.8052 32.719 35.6192 32.5251 35.3522C32.4856 35.4001 32.4421 35.4412 32.3947 35.4751C31.8586 35.4698 31.2288 34.7646 30.9164 33.7742C30.604 32.7838 30.7151 31.8448 31.1513 31.5329C31.3948 31.5352 31.6575 31.682 31.9011 31.9342C32.0682 30.7749 32.5686 29.8865 33.1886 29.6842C33.8086 29.8865 34.3089 30.7749 34.4761 31.9342C34.7197 31.682 34.9824 31.5352 35.2259 31.5329C35.6621 31.8448 35.7732 32.7838 35.4608 33.7742Z" fill="#FDE803"/>
<path d="M35.4596 33.7742C35.3103 34.2474 35.0885 34.6556 34.8392 34.9533C33.6366 34.6378 32.7383 33.3844 32.7383 31.8862C32.7383 31.0836 32.9962 30.3512 33.4205 29.7957C33.9307 30.1198 34.3293 30.9242 34.4749 31.9343C34.7185 31.6821 34.9812 31.5353 35.2247 31.533C35.6609 31.8448 35.772 32.7838 35.4596 33.7742Z" fill="#FDF061"/>
<path d="M36.4249 37.2772C36.235 37.7355 35.7097 37.9531 35.2513 37.7633L33.0767 36.8625L30.4897 37.78C30.0221 37.9458 29.5087 37.7012 29.3429 37.2337C29.1771 36.7661 29.4217 36.2528 29.8892 36.0869L30.7492 35.7818C30.548 35.5341 30.4853 35.1866 30.6161 34.871C30.806 34.4126 31.3314 34.1951 31.7897 34.3848L33.1266 34.9387L34.1219 34.5857C34.5894 34.4199 35.1028 34.6645 35.2686 35.132C35.3507 35.3634 35.3321 35.6061 35.2359 35.8124L35.9389 36.1036C36.3971 36.2934 36.6148 36.8189 36.4249 37.2772Z" fill="#AA695D"/>
<path d="M35.234 35.8124L34.3642 35.4521L34.4203 35.4322C34.7337 35.3211 34.9468 35.0538 35.0034 34.7489C35.1196 34.8479 35.2121 34.9778 35.2667 35.132C35.3488 35.3635 35.3302 35.6061 35.234 35.8124ZM36.4838 36.8163C36.2376 37.0049 35.9003 37.0607 35.5932 36.9334L31.444 35.2147C31.1368 35.0874 30.9379 34.8095 30.8971 34.5021C30.7759 34.5949 30.6767 34.7198 30.6141 34.871C30.4243 35.3293 30.6419 35.8547 31.1002 36.0446L31.8352 36.3491L30.1875 36.9334C29.8741 37.0445 29.5402 36.9713 29.3041 36.7702C29.2763 36.9202 29.2862 37.0795 29.3409 37.2337C29.5067 37.7012 30.0202 37.9458 30.4877 37.78L33.0747 36.8625L35.2494 37.7633C35.7078 37.9532 36.2331 37.7355 36.423 37.2772C36.4856 37.126 36.5039 36.9676 36.4838 36.8163Z" fill="#5A443D"/>
<path d="M30.4897 37.78C30.0221 37.9458 29.5087 37.7012 29.3429 37.2337C29.1771 36.7662 29.4217 36.2528 29.8892 36.087C30.3567 35.9211 30.8701 36.1657 31.0359 36.6332C31.2018 37.1007 30.9572 37.6142 30.4897 37.78ZM35.2513 37.7633C35.7096 37.9532 36.235 37.7355 36.4249 37.2772C36.6148 36.8189 36.3971 36.2935 35.9388 36.1036C35.4805 35.9137 34.9551 36.1313 34.7652 36.5897C34.5754 37.0479 34.793 37.5734 35.2513 37.7633Z" fill="#FFF2B4"/>
<path d="M30.0374 36.5101C30.2712 36.4272 30.5279 36.5495 30.6108 36.7832C30.6937 37.017 30.5714 37.2737 30.3377 37.3566C30.1039 37.4395 29.8471 37.3173 29.7642 37.0835C29.6813 36.8498 29.8036 36.5931 30.0374 36.5101ZM35.765 36.5185C35.5359 36.4236 35.2732 36.5324 35.1783 36.7616C35.0833 36.9907 35.1922 37.2534 35.4213 37.3484C35.6504 37.4433 35.9132 37.3344 36.0081 37.1053C36.103 36.8762 35.9942 36.6134 35.765 36.5185Z" fill="#F1CA50"/>
</g>
<path d="M53.28 7.04H59.76L67.44 26.92L75.16 7.04H81.6L70.44 35H64.48L53.28 7.04ZM96.0184 35.6C92.3384 35.6 89.4451 34.72 87.3384 32.96C85.2318 31.1733 84.1784 28.68 84.1784 25.48C84.1784 22.3067 85.1118 19.8 86.9784 17.96C88.8718 16.12 91.5651 15.2 95.0584 15.2C97.3518 15.2 99.2984 15.6267 100.898 16.48C102.498 17.3333 103.712 18.52 104.538 20.04C105.365 21.5333 105.778 23.2267 105.778 25.12V27.56H89.9384C90.3651 30.0133 92.6584 31.24 96.8184 31.24C98.0451 31.24 99.3118 31.1333 100.618 30.92C101.925 30.7067 103.058 30.4133 104.018 30.04V34.28C103.085 34.68 101.885 35 100.418 35.24C98.9518 35.48 97.4851 35.6 96.0184 35.6ZM100.058 23.64C99.9784 22.36 99.4984 21.3733 98.6184 20.68C97.7384 19.96 96.5251 19.6 94.9784 19.6C93.4584 19.6 92.2584 19.96 91.3784 20.68C90.4984 21.4 90.0184 22.3867 89.9384 23.64H100.058ZM118.479 35.6C116.506 35.6 114.746 35.1867 113.199 34.36C111.679 33.5067 110.479 32.32 109.599 30.8C108.746 29.2533 108.319 27.4667 108.319 25.44C108.319 23.44 108.746 21.6667 109.599 20.12C110.452 18.5733 111.652 17.3733 113.199 16.52C114.746 15.64 116.506 15.2 118.479 15.2C119.919 15.2 121.239 15.4 122.439 15.8C123.639 16.2 124.652 16.7733 125.479 17.52V5.44H131.519V35H125.679V32.92C124.692 33.8533 123.612 34.5333 122.439 34.96C121.292 35.3867 119.972 35.6 118.479 35.6ZM120.039 30.92C121.292 30.92 122.399 30.5867 123.359 29.92C124.346 29.2533 125.052 28.36 125.479 27.24V23.6C125.106 22.5067 124.412 21.6267 123.399 20.96C122.412 20.2667 121.292 19.92 120.039 19.92C118.412 19.92 117.079 20.4267 116.039 21.44C115.026 22.4533 114.519 23.7867 114.519 25.44C114.519 27.0933 115.026 28.4267 116.039 29.44C117.079 30.4267 118.412 30.92 120.039 30.92ZM135.721 5.44H141.761V18C142.667 17.0667 143.694 16.3733 144.841 15.92C145.987 15.44 147.214 15.2 148.521 15.2C151.134 15.2 153.081 15.9067 154.361 17.32C155.667 18.7067 156.321 20.5867 156.321 22.96V35H150.281V23.64C150.281 21.16 149.134 19.92 146.841 19.92C145.827 19.92 144.881 20.1733 144.001 20.68C143.121 21.16 142.374 21.88 141.761 22.84V35H135.721V5.44ZM167.49 35.6C165.143 35.6 163.223 35.0133 161.73 33.84C160.263 32.64 159.53 31.0133 159.53 28.96C159.53 26.8267 160.237 25.1733 161.65 24C163.063 22.8 165.063 22.2 167.65 22.2C168.797 22.2 169.89 22.32 170.93 22.56C171.97 22.8 172.89 23.1333 173.69 23.56V23.08C173.69 21.88 173.263 21 172.41 20.44C171.557 19.88 170.25 19.6 168.49 19.6C166.143 19.6 163.983 20.04 162.01 20.92V16.52C162.863 16.1467 163.97 15.84 165.33 15.6C166.69 15.3333 168.05 15.2 169.41 15.2C172.877 15.2 175.463 15.92 177.17 17.36C178.877 18.7733 179.73 20.76 179.73 23.32V35H174.05V33.24C172.423 34.8133 170.237 35.6 167.49 35.6ZM169.13 31.6C170.117 31.6 171.01 31.4133 171.81 31.04C172.61 30.6667 173.237 30.1467 173.69 29.48V27.56C172.33 26.6533 170.837 26.2 169.21 26.2C168.09 26.2 167.223 26.44 166.61 26.92C166.023 27.3733 165.73 28.0533 165.73 28.96C165.73 29.8133 166.023 30.4667 166.61 30.92C167.197 31.3733 168.037 31.6 169.13 31.6ZM183.728 5.44H189.768V23.92L196.768 15.8H203.768L195.648 25.16L204.768 35H197.768L189.768 26.36V35H183.728V5.44Z" fill="#1C231F"/>
<defs>
<clipPath id="clip0_150_686">
<rect width="45" height="45" fill="white"/>
</clipPath>
</defs>
</svg>
